<?xml version="1.0" encoding="UTF-8"?>
<!DOCTYPE svg PUBLIC "-//W3C//DTD SVG 1.1//EN" "http://www.w3.org/Graphics/SVG/1.1/DTD/svg11.dtd">
<svg version="1.2" width="42.33mm" height="10.85mm" viewBox="0 0 4233 1085" preserveAspectRatio="xMidYMid" fill-rule="evenodd" stroke-width="28.222" stroke-linejoin="round" xmlns="http://www.w3.org/2000/svg" xmlns:ooo="http://xml.openoffice.org/svg/export" xmlns:xlink="http://www.w3.org/1999/xlink" xmlns:presentation="http://sun.com/xmlns/staroffice/presentation" xmlns:smil="http://www.w3.org/2001/SMIL20/" xmlns:anim="urn:oasis:names:tc:opendocument:xmlns:animation:1.0" xmlns:svg="urn:oasis:names:tc:opendocument:xmlns:svg-compatible:1.0" xml:space="preserve">
 <defs class="ClipPathGroup">
  <clipPath id="presentation_clip_path" clipPathUnits="userSpaceOnUse">
   <rect x="0" y="0" width="4233" height="1085"/>
  </clipPath>
  <clipPath id="presentation_clip_path_shrink" clipPathUnits="userSpaceOnUse">
   <rect x="4" y="1" width="4225" height="1083"/>
  </clipPath>
 </defs>
 <defs class="TextShapeIndex">
  <g ooo:slide="id1" ooo:id-list="id3"/>
 </defs>
 <defs class="EmbeddedBulletChars">
  <g id="bullet-char-template-57356" transform="scale(0.00048828125,-0.00048828125)">
   <path d="M 580,1141 L 1163,571 580,0 -4,571 580,1141 Z"/>
  </g>
  <g id="bullet-char-template-57354" transform="scale(0.00048828125,-0.00048828125)">
   <path d="M 8,1128 L 1137,1128 1137,0 8,0 8,1128 Z"/>
  </g>
  <g id="bullet-char-template-10146" transform="scale(0.00048828125,-0.00048828125)">
   <path d="M 174,0 L 602,739 174,1481 1456,739 174,0 Z M 1358,739 L 309,1346 659,739 1358,739 Z"/>
  </g>
  <g id="bullet-char-template-10132" transform="scale(0.00048828125,-0.00048828125)">
   <path d="M 2015,739 L 1276,0 717,0 1260,543 174,543 174,936 1260,936 717,1481 1274,1481 2015,739 Z"/>
  </g>
  <g id="bullet-char-template-10007" transform="scale(0.00048828125,-0.00048828125)">
   <path d="M 0,-2 C -7,14 -16,27 -25,37 L 356,567 C 262,823 215,952 215,954 215,979 228,992 255,992 264,992 276,990 289,987 310,991 331,999 354,1012 L 381,999 492,748 772,1049 836,1024 860,1049 C 881,1039 901,1025 922,1006 886,937 835,863 770,784 769,783 710,716 594,584 L 774,223 C 774,196 753,168 711,139 L 727,119 C 717,90 699,76 672,76 641,76 570,178 457,381 L 164,-76 C 142,-110 111,-127 72,-127 30,-127 9,-110 8,-76 1,-67 -2,-52 -2,-32 -2,-23 -1,-13 0,-2 Z"/>
  </g>
  <g id="bullet-char-template-10004" transform="scale(0.00048828125,-0.00048828125)">
   <path d="M 285,-33 C 182,-33 111,30 74,156 52,228 41,333 41,471 41,549 55,616 82,672 116,743 169,778 240,778 293,778 328,747 346,684 L 369,508 C 377,444 397,411 428,410 L 1163,1116 C 1174,1127 1196,1133 1229,1133 1271,1133 1292,1118 1292,1087 L 1292,965 C 1292,929 1282,901 1262,881 L 442,47 C 390,-6 338,-33 285,-33 Z"/>
  </g>
  <g id="bullet-char-template-9679" transform="scale(0.00048828125,-0.00048828125)">
   <path d="M 813,0 C 632,0 489,54 383,161 276,268 223,411 223,592 223,773 276,916 383,1023 489,1130 632,1184 813,1184 992,1184 1136,1130 1245,1023 1353,916 1407,772 1407,592 1407,412 1353,268 1245,161 1136,54 992,0 813,0 Z"/>
  </g>
  <g id="bullet-char-template-8226" transform="scale(0.00048828125,-0.00048828125)">
   <path d="M 346,457 C 273,457 209,483 155,535 101,586 74,649 74,723 74,796 101,859 155,911 209,963 273,989 346,989 419,989 480,963 531,910 582,859 608,796 608,723 608,648 583,586 532,535 482,483 420,457 346,457 Z"/>
  </g>
  <g id="bullet-char-template-8211" transform="scale(0.00048828125,-0.00048828125)">
   <path d="M -4,459 L 1135,459 1135,606 -4,606 -4,459 Z"/>
  </g>
  <g id="bullet-char-template-61548" transform="scale(0.00048828125,-0.00048828125)">
   <path d="M 173,740 C 173,903 231,1043 346,1159 462,1274 601,1332 765,1332 928,1332 1067,1274 1183,1159 1299,1043 1357,903 1357,740 1357,577 1299,437 1183,322 1067,206 928,148 765,148 601,148 462,206 346,322 231,437 173,577 173,740 Z"/>
  </g>
 </defs>
 <g>
  <g id="id2" class="Master_Slide">
   <g id="bg-id2" class="Background"/>
   <g id="bo-id2" class="BackgroundObjects"/>
  </g>
 </g>
 <g class="SlideGroup">
  <g>
   <g id="container-id1">
    <g id="id1" class="Slide" clip-path="url(#presentation_clip_path)">
     <g class="Page">
      <g class="Graphic">
       <g id="id3">
        <rect class="BoundingBox" stroke="none" fill="none" x="744" y="-23" width="2857" height="1085"/>
        <defs>
         <clipPath id="clip_path_1" clipPathUnits="userSpaceOnUse">
          <path d="M 744,-23 L 3600,-23 3600,1061 744,1061 744,-23 Z "/>
         </clipPath>
        </defs>
        <g clip-path="url(#clip_path_1)">
         <path fill="rgb(42,85,229)" stroke="none" d="M 1316,117 L 1323,75 C 1325,68 1323,61 1318,56 1313,51 1306,48 1298,48 L 1010,48 C 997,48 986,56 984,67 L 907,502 C 906,509 908,516 913,521 918,526 925,529 932,529 L 999,529 C 1012,529 1022,521 1024,509 L 1054,341 1219,341 C 1232,341 1242,333 1244,322 L 1251,285 C 1252,278 1250,271 1245,266 1240,261 1233,258 1226,258 L 1070,258 1090,136 1291,136 C 1304,136 1314,128 1316,117 L 1316,117 Z M 2826,262 L 2824,261 C 2807,256 2786,254 2763,254 2726,254 2698,267 2679,293 2661,319 2652,349 2652,381 2652,400 2656,417 2664,430 2672,444 2683,451 2698,451 2714,451 2733,442 2754,423 2774,405 2793,384 2809,360 L 2826,262 2826,262 Z M 2947,212 L 2895,510 C 2893,521 2882,529 2869,529 L 2830,529 C 2823,529 2816,527 2811,522 2807,518 2804,512 2804,505 L 2806,469 2801,473 C 2801,473 2786,488 2769,500 2743,518 2714,528 2711,529 2695,534 2678,537 2660,537 2620,537 2591,524 2569,498 2548,473 2537,439 2537,398 2537,377 2540,356 2544,335 2549,315 2557,295 2569,275 2581,255 2596,237 2614,222 2632,207 2655,194 2683,185 2711,176 2743,171 2778,171 2821,171 2871,176 2927,186 2941,188 2950,199 2947,212 L 2947,212 Z M 3228,175 C 3202,180 3176,194 3159,206 3140,218 3112,245 3112,245 L 3107,250 3109,203 C 3110,196 3107,190 3102,186 3098,181 3091,179 3084,179 L 3044,179 C 3031,179 3021,187 3019,198 L 2965,503 C 2964,509 2966,516 2971,521 2975,526 2982,529 2990,529 L 3051,529 C 3064,529 3075,521 3077,510 L 3105,347 C 3121,327 3143,310 3168,295 3187,285 3207,278 3226,275 3237,274 3245,266 3248,257 L 3259,201 C 3261,193 3258,186 3252,180 3246,175 3237,173 3228,175 L 3228,175 Z M 2002,327 C 2002,307 1998,290 1991,277 1983,264 1971,257 1957,257 1940,257 1921,266 1901,285 1880,303 1861,324 1845,348 L 1828,446 1830,447 C 1848,451 1868,454 1891,454 1929,454 1957,441 1975,414 1993,388 2002,359 2002,327 L 2002,327 Z M 2085,209 C 2106,235 2117,269 2117,310 2117,337 2113,363 2105,388 2096,413 2083,438 2066,461 2049,484 2023,502 1991,516 1959,530 1920,537 1877,537 1860,537 1838,536 1813,533 L 1810,532 1806,574 C 1806,574 1806,574 1806,575 L 1792,648 C 1790,659 1779,667 1767,667 L 1706,667 C 1699,667 1692,664 1687,659 1682,654 1680,647 1681,640 L 1760,198 C 1762,187 1773,179 1785,179 L 1825,179 C 1832,179 1838,181 1843,186 1848,190 1851,196 1850,202 L 1849,240 1854,234 C 1854,234 1891,194 1949,178 1964,173 1980,171 1995,171 2034,171 2063,184 2085,209 L 2085,209 Z M 3500,179 L 3452,179 3463,118 C 3464,111 3461,105 3457,100 3452,94 3445,92 3437,92 L 3389,92 C 3378,92 3368,98 3364,108 L 3341,179 3314,179 C 3302,179 3291,187 3289,198 L 3283,230 C 3282,237 3284,244 3289,249 3294,254 3301,257 3309,257 L 3325,257 3296,419 C 3294,429 3293,440 3293,451 3293,480 3301,501 3319,515 3337,529 3363,537 3398,537 3419,537 3449,529 3453,528 3455,527 3461,525 3461,525 3462,524 3464,524 3464,524 3472,520 3477,514 3478,506 L 3482,473 C 3483,466 3480,458 3474,454 3473,452 3471,451 3469,450 3467,449 3466,449 3465,448 3464,448 3461,448 3452,448 3450,448 3448,448 3446,448 3441,448 3439,448 3437,448 3434,447 3425,445 3420,442 3418,440 3412,435 3412,416 3412,414 3412,411 3412,407 L 3439,257 3493,257 C 3505,257 3516,249 3518,239 L 3525,206 C 3527,199 3525,192 3520,187 3515,182 3508,179 3500,179 L 3500,179 Z M 2528,188 C 2523,182 2515,179 2507,179 L 2443,179 C 2432,179 2422,185 2419,195 2413,211 2403,230 2388,252 2367,281 2350,300 2335,308 L 2333,309 C 2328,311 2320,315 2291,319 L 2288,320 2332,75 C 2333,68 2331,61 2326,56 2321,51 2314,48 2307,48 L 2246,48 C 2233,48 2222,56 2220,67 L 2143,503 C 2141,509 2143,516 2148,521 2153,526 2160,529 2168,529 L 2229,529 C 2242,529 2252,521 2254,510 L 2274,396 2313,396 2365,515 C 2369,524 2379,529 2389,529 L 2456,529 C 2470,529 2481,519 2481,506 2481,503 2481,500 2479,497 L 2419,359 2420,358 C 2445,338 2471,310 2496,274 2513,251 2525,229 2532,208 2534,201 2533,194 2528,188 L 2528,188 Z M 1643,148 C 1668,148 1688,143 1700,131 1712,119 1718,105 1718,86 1718,72 1713,61 1704,54 1695,47 1681,43 1663,43 1637,43 1618,49 1606,61 1594,72 1588,87 1588,106 1588,120 1593,131 1602,138 1611,145 1624,148 1643,148 L 1643,148 Z M 1664,179 L 1603,179 C 1590,179 1580,187 1578,198 L 1524,503 C 1523,509 1525,516 1530,521 1534,526 1541,529 1549,529 L 1609,529 C 1622,529 1633,521 1635,510 L 1689,205 C 1690,198 1688,191 1683,187 1678,182 1671,179 1664,179 L 1664,179 Z M 1489,56 C 1494,61 1496,68 1495,75 L 1435,412 C 1434,418 1434,421 1434,424 1434,435 1437,443 1442,447 1446,451 1456,453 1458,453 1463,454 1468,456 1472,460 1477,465 1480,471 1479,478 L 1476,508 C 1475,515 1472,520 1468,523 1463,525 1458,528 1452,530 1445,532 1427,537 1414,537 1382,537 1357,530 1340,517 1324,504 1315,485 1315,461 1315,454 1316,447 1317,439 1318,436 1382,72 1383,68 1385,56 1396,48 1408,48 L 1469,48 C 1477,48 1484,51 1489,56 L 1489,56 Z "/>
        </g>
        <defs>
         <clipPath id="clip_path_2" clipPathUnits="userSpaceOnUse">
          <path d="M 3248,771 C 3248,771 3287,788 3305,795 3324,802 3326,828 3306,837 3285,846 3280,847 3280,847 3280,847 3283,840 3283,833 3281,820 3239,810 3212,804 3212,804 3190,744 3181,728 3171,711 3152,704 3152,704 L 3198,705 C 3198,705 3214,704 3221,719 3228,735 3248,771 3248,771 L 3248,771 Z "/>
         </clipPath>
        </defs>
        <g clip-path="url(#clip_path_2)">
         <path fill="rgb(242,169,48)" stroke="none" d="M 3146,650 L 3165,667 3111,715 3092,698 3146,650 Z "/>
         <path fill="rgb(245,184,38)" stroke="none" d="M 3153,656 L 3172,673 3118,721 3099,704 3153,656 Z "/>
         <path fill="rgb(247,199,29)" stroke="none" d="M 3160,662 L 3179,679 3125,727 3106,710 3160,662 Z "/>
         <path fill="rgb(250,213,19)" stroke="none" d="M 3167,668 L 3186,685 3132,733 3113,716 3167,668 Z "/>
         <path fill="rgb(252,228,10)" stroke="none" d="M 3174,674 L 3193,691 3139,739 3120,722 3174,674 Z "/>
         <path fill="rgb(255,243,0)" stroke="none" d="M 3181,681 L 3228,723 3174,771 3127,729 3181,681 Z "/>
         <path fill="rgb(255,243,0)" stroke="none" d="M 3216,712 L 3235,729 3181,777 3162,760 3216,712 Z "/>
         <path fill="rgb(255,240,0)" stroke="none" d="M 3223,718 L 3242,735 3188,783 3169,766 3223,718 Z "/>
         <path fill="rgb(255,237,0)" stroke="none" d="M 3230,724 L 3249,741 3195,789 3176,773 3230,724 Z "/>
         <path fill="rgb(255,235,0)" stroke="none" d="M 3237,731 L 3256,748 3203,796 3183,779 3237,731 Z "/>
         <path fill="rgb(255,232,0)" stroke="none" d="M 3244,737 L 3263,754 3210,802 3190,785 3244,737 Z "/>
         <path fill="rgb(255,229,0)" stroke="none" d="M 3251,743 L 3270,760 3216,808 3197,791 3251,743 Z "/>
         <path fill="rgb(253,220,7)" stroke="none" d="M 3258,749 L 3277,766 3223,814 3204,797 3258,749 Z "/>
         <path fill="rgb(251,212,14)" stroke="none" d="M 3265,755 L 3284,772 3230,820 3211,803 3265,755 Z "/>
         <path fill="rgb(249,203,21)" stroke="none" d="M 3272,761 L 3291,778 3237,826 3218,809 3272,761 Z "/>
         <path fill="rgb(248,195,27)" stroke="none" d="M 3278,767 L 3297,784 3244,832 3225,815 3278,767 Z "/>
         <path fill="rgb(246,186,34)" stroke="none" d="M 3285,773 L 3304,790 3250,838 3231,821 3285,773 Z "/>
         <path fill="rgb(244,178,41)" stroke="none" d="M 3292,779 L 3311,796 3257,844 3238,827 3292,779 Z "/>
         <path fill="rgb(242,169,48)" stroke="none" d="M 3299,785 L 3340,821 3286,869 3245,833 3299,785 Z "/>
        </g>
        <g clip-path="url(#clip_path_1)"/>
        <defs>
         <clipPath id="clip_path_3" clipPathUnits="userSpaceOnUse">
          <path d="M 3246,901 C 3246,901 3227,935 3218,952 3211,969 3181,971 3171,953 3161,935 3160,931 3160,931 3160,931 3166,932 3175,932 3189,931 3202,894 3208,869 3208,869 3275,850 3294,841 3313,833 3320,815 3320,815 L 3320,863 C 3320,863 3320,871 3303,877 3286,883 3246,901 3246,901 L 3246,901 Z "/>
         </clipPath>
        </defs>
        <g clip-path="url(#clip_path_3)">
         <path fill="rgb(242,169,48)" stroke="none" d="M 3140,930 L 3173,901 3227,949 3194,978 3140,930 Z "/>
         <path fill="rgb(242,169,48)" stroke="none" d="M 3169,904 L 3175,898 3229,947 3223,952 3169,904 Z "/>
         <path fill="rgb(243,172,46)" stroke="none" d="M 3171,902 L 3177,896 3231,945 3225,950 3171,902 Z "/>
         <path fill="rgb(243,175,43)" stroke="none" d="M 3173,900 L 3180,894 3234,943 3227,948 3173,900 Z "/>
         <path fill="rgb(244,178,41)" stroke="none" d="M 3176,898 L 3182,892 3236,940 3230,946 3176,898 Z "/>
         <path fill="rgb(245,181,38)" stroke="none" d="M 3178,896 L 3184,890 3239,938 3232,944 3178,896 Z "/>
         <path fill="rgb(245,184,36)" stroke="none" d="M 3180,894 L 3187,888 3241,936 3235,942 3180,894 Z "/>
         <path fill="rgb(246,187,34)" stroke="none" d="M 3183,891 L 3189,886 3243,934 3237,940 3183,891 Z "/>
         <path fill="rgb(247,190,31)" stroke="none" d="M 3185,889 L 3192,884 3246,932 3239,938 3185,889 Z "/>
         <path fill="rgb(247,193,29)" stroke="none" d="M 3188,887 L 3194,882 3248,930 3242,936 3188,887 Z "/>
         <path fill="rgb(248,196,26)" stroke="none" d="M 3190,885 L 3196,879 3251,928 3244,933 3190,885 Z "/>
         <path fill="rgb(249,199,24)" stroke="none" d="M 3192,883 L 3199,877 3253,926 3246,931 3192,883 Z "/>
         <path fill="rgb(249,202,22)" stroke="none" d="M 3195,881 L 3201,875 3255,924 3249,929 3195,881 Z "/>
         <path fill="rgb(250,205,19)" stroke="none" d="M 3197,879 L 3204,873 3258,921 3251,927 3197,879 Z "/>
         <path fill="rgb(250,208,17)" stroke="none" d="M 3199,877 L 3206,871 3260,919 3254,925 3199,877 Z "/>
         <path fill="rgb(251,211,14)" stroke="none" d="M 3202,875 L 3208,869 3262,917 3256,923 3202,875 Z "/>
         <path fill="rgb(252,214,12)" stroke="none" d="M 3204,873 L 3211,867 3265,915 3258,921 3204,873 Z "/>
         <path fill="rgb(252,217,10)" stroke="none" d="M 3207,870 L 3213,865 3267,913 3261,919 3207,870 Z "/>
         <path fill="rgb(253,220,7)" stroke="none" d="M 3209,868 L 3215,863 3270,911 3263,917 3209,868 Z "/>
         <path fill="rgb(254,223,5)" stroke="none" d="M 3211,866 L 3218,861 3272,909 3266,914 3211,866 Z "/>
         <path fill="rgb(254,226,2)" stroke="none" d="M 3214,864 L 3220,858 3274,907 3268,912 3214,864 Z "/>
         <path fill="rgb(255,229,0)" stroke="none" d="M 3216,862 L 3223,856 3277,904 3270,910 3216,862 Z "/>
         <path fill="rgb(255,230,0)" stroke="none" d="M 3219,860 L 3225,854 3279,902 3273,908 3219,860 Z "/>
         <path fill="rgb(255,231,0)" stroke="none" d="M 3221,858 L 3228,852 3282,900 3275,906 3221,858 Z "/>
         <path fill="rgb(255,232,0)" stroke="none" d="M 3224,855 L 3230,850 3284,898 3278,904 3224,855 Z "/>
         <path fill="rgb(255,233,0)" stroke="none" d="M 3226,853 L 3233,847 3287,896 3280,901 3226,853 Z "/>
         <path fill="rgb(255,234,0)" stroke="none" d="M 3229,851 L 3235,845 3289,893 3283,899 3229,851 Z "/>
         <path fill="rgb(255,235,0)" stroke="none" d="M 3231,849 L 3238,843 3292,891 3285,897 3231,849 Z "/>
         <path fill="rgb(255,236,0)" stroke="none" d="M 3234,846 L 3240,841 3294,889 3288,895 3234,846 Z "/>
         <path fill="rgb(255,237,0)" stroke="none" d="M 3236,844 L 3243,838 3297,887 3290,892 3236,844 Z "/>
         <path fill="rgb(255,238,0)" stroke="none" d="M 3239,842 L 3245,836 3299,884 3293,890 3239,842 Z "/>
         <path fill="rgb(255,239,0)" stroke="none" d="M 3241,840 L 3248,834 3302,882 3295,888 3241,840 Z "/>
         <path fill="rgb(255,240,0)" stroke="none" d="M 3244,837 L 3250,832 3304,880 3298,886 3244,837 Z "/>
         <path fill="rgb(255,241,0)" stroke="none" d="M 3246,835 L 3253,829 3307,878 3300,884 3246,835 Z "/>
         <path fill="rgb(255,242,0)" stroke="none" d="M 3249,833 L 3255,827 3310,876 3303,881 3249,833 Z "/>
         <path fill="rgb(255,243,0)" stroke="none" d="M 3251,831 L 3291,796 3345,844 3305,879 3251,831 Z "/>
         <path fill="rgb(255,243,0)" stroke="none" d="M 3287,799 L 3293,794 3348,842 3341,848 3287,799 Z "/>
         <path fill="rgb(254,238,3)" stroke="none" d="M 3289,797 L 3296,791 3350,840 3344,845 3289,797 Z "/>
         <path fill="rgb(253,232,7)" stroke="none" d="M 3292,795 L 3298,789 3353,837 3346,843 3292,795 Z "/>
         <path fill="rgb(252,227,10)" stroke="none" d="M 3294,793 L 3301,787 3355,835 3349,841 3294,793 Z "/>
         <path fill="rgb(251,222,14)" stroke="none" d="M 3297,790 L 3303,785 3358,833 3351,839 3297,790 Z "/>
         <path fill="rgb(250,217,17)" stroke="none" d="M 3299,788 L 3306,782 3360,831 3354,837 3299,788 Z "/>
         <path fill="rgb(249,211,21)" stroke="none" d="M 3302,786 L 3308,780 3363,829 3356,834 3302,786 Z "/>
         <path fill="rgb(249,206,24)" stroke="none" d="M 3304,784 L 3311,778 3365,826 3359,832 3304,784 Z "/>
         <path fill="rgb(248,201,27)" stroke="none" d="M 3307,782 L 3313,776 3368,824 3361,830 3307,782 Z "/>
         <path fill="rgb(247,195,31)" stroke="none" d="M 3309,779 L 3316,774 3370,822 3364,828 3309,779 Z "/>
         <path fill="rgb(246,190,34)" stroke="none" d="M 3312,777 L 3318,771 3373,820 3366,825 3312,777 Z "/>
         <path fill="rgb(245,185,38)" stroke="none" d="M 3314,775 L 3321,769 3375,817 3369,823 3314,775 Z "/>
         <path fill="rgb(244,180,41)" stroke="none" d="M 3317,773 L 3323,767 3378,815 3371,821 3317,773 Z "/>
         <path fill="rgb(243,174,45)" stroke="none" d="M 3319,771 L 3326,765 3380,813 3374,819 3319,771 Z "/>
        </g>
        <g clip-path="url(#clip_path_1)"/>
        <defs>
         <clipPath id="clip_path_4" clipPathUnits="userSpaceOnUse">
          <path d="M 3098,899 C 3098,899 3060,882 3041,875 3022,868 3020,842 3040,833 3061,824 3069,822 3069,822 3069,822 3063,830 3065,838 3066,851 3107,860 3134,866 3134,866 3156,925 3165,942 3176,963 3194,966 3194,966 L 3141,965 C 3141,965 3132,966 3125,951 3118,935 3098,899 3098,899 L 3098,899 Z "/>
         </clipPath>
        </defs>
        <g clip-path="url(#clip_path_4)">
         <path fill="rgb(242,169,48)" stroke="none" d="M 3063,802 L 3103,838 3049,887 3008,851 3063,802 Z "/>
         <path fill="rgb(242,169,48)" stroke="none" d="M 3091,828 L 3110,844 3056,893 3037,876 3091,828 Z "/>
         <path fill="rgb(244,178,41)" stroke="none" d="M 3098,834 L 3117,850 3062,899 3044,882 3098,834 Z "/>
         <path fill="rgb(246,186,34)" stroke="none" d="M 3105,840 L 3124,856 3069,905 3050,888 3105,840 Z "/>
         <path fill="rgb(248,195,27)" stroke="none" d="M 3112,846 L 3130,862 3076,911 3057,894 3112,846 Z "/>
         <path fill="rgb(249,203,21)" stroke="none" d="M 3119,852 L 3137,868 3083,917 3064,900 3119,852 Z "/>
         <path fill="rgb(251,212,14)" stroke="none" d="M 3125,858 L 3144,874 3090,923 3071,906 3125,858 Z "/>
         <path fill="rgb(253,220,7)" stroke="none" d="M 3132,864 L 3151,880 3096,929 3078,912 3132,864 Z "/>
         <path fill="rgb(255,229,0)" stroke="none" d="M 3139,870 L 3158,887 3103,935 3084,918 3139,870 Z "/>
         <path fill="rgb(255,232,0)" stroke="none" d="M 3146,876 L 3165,893 3110,942 3091,925 3146,876 Z "/>
         <path fill="rgb(255,235,0)" stroke="none" d="M 3153,882 L 3172,899 3117,948 3098,931 3153,882 Z "/>
         <path fill="rgb(255,237,0)" stroke="none" d="M 3160,889 L 3179,905 3124,954 3105,937 3160,889 Z "/>
         <path fill="rgb(255,240,0)" stroke="none" d="M 3167,895 L 3186,912 3131,960 3112,943 3167,895 Z "/>
         <path fill="rgb(255,243,0)" stroke="none" d="M 3174,901 L 3221,943 3167,991 3119,950 3174,901 Z "/>
         <path fill="rgb(255,243,0)" stroke="none" d="M 3209,932 L 3228,949 3174,998 3155,981 3209,932 Z "/>
         <path fill="rgb(252,228,10)" stroke="none" d="M 3216,938 L 3235,955 3181,1004 3162,987 3216,938 Z "/>
         <path fill="rgb(250,213,19)" stroke="none" d="M 3223,945 L 3242,961 3188,1010 3169,993 3223,945 Z "/>
         <path fill="rgb(247,199,29)" stroke="none" d="M 3230,951 L 3249,968 3195,1016 3176,999 3230,951 Z "/>
         <path fill="rgb(245,184,38)" stroke="none" d="M 3237,957 L 3256,974 3202,1022 3183,1006 3237,957 Z "/>
        </g>
        <g clip-path="url(#clip_path_1)"/>
        <defs>
         <clipPath id="clip_path_5" clipPathUnits="userSpaceOnUse">
          <path d="M 3101,768 C 3101,768 3120,734 3128,717 3136,701 3165,699 3175,717 3185,735 3186,738 3186,738 3186,738 3179,738 3171,739 3156,740 3145,776 3138,801 3138,801 3072,820 3053,828 3027,839 3026,854 3026,854 L 3027,807 C 3027,807 3026,799 3043,793 3060,786 3101,768 3101,768 L 3101,768 Z "/>
         </clipPath>
        </defs>
        <g clip-path="url(#clip_path_5)">
         <path fill="rgb(242,169,48)" stroke="none" d="M 2967,856 L 2974,850 3028,898 3022,904 2967,856 Z "/>
         <path fill="rgb(243,174,45)" stroke="none" d="M 2970,853 L 2976,848 3031,896 3024,902 2970,853 Z "/>
         <path fill="rgb(244,180,41)" stroke="none" d="M 2972,851 L 2979,845 3033,894 3027,899 2972,851 Z "/>
         <path fill="rgb(245,185,38)" stroke="none" d="M 2975,849 L 2981,843 3036,891 3029,897 2975,849 Z "/>
         <path fill="rgb(246,190,34)" stroke="none" d="M 2977,847 L 2984,841 3038,889 3032,895 2977,847 Z "/>
         <path fill="rgb(247,195,31)" stroke="none" d="M 2980,845 L 2986,839 3041,887 3034,893 2980,845 Z "/>
         <path fill="rgb(248,201,27)" stroke="none" d="M 2982,842 L 2989,837 3043,885 3037,891 2982,842 Z "/>
         <path fill="rgb(249,206,24)" stroke="none" d="M 2985,840 L 2991,834 3046,883 3039,888 2985,840 Z "/>
         <path fill="rgb(249,211,21)" stroke="none" d="M 2987,838 L 2994,832 3048,880 3042,886 2987,838 Z "/>
         <path fill="rgb(250,217,17)" stroke="none" d="M 2990,836 L 2996,830 3051,878 3044,884 2990,836 Z "/>
         <path fill="rgb(251,222,14)" stroke="none" d="M 2992,834 L 2999,828 3053,876 3047,882 2992,834 Z "/>
         <path fill="rgb(252,227,10)" stroke="none" d="M 2995,831 L 3001,826 3056,874 3049,880 2995,831 Z "/>
         <path fill="rgb(253,232,7)" stroke="none" d="M 2997,829 L 3004,823 3058,872 3052,877 2997,829 Z "/>
         <path fill="rgb(254,238,3)" stroke="none" d="M 3000,827 L 3006,821 3061,869 3054,875 3000,827 Z "/>
         <path fill="rgb(255,243,0)" stroke="none" d="M 3002,825 L 3042,790 3096,838 3057,873 3002,825 Z "/>
         <path fill="rgb(255,243,0)" stroke="none" d="M 3038,793 L 3044,788 3099,836 3092,842 3038,793 Z "/>
         <path fill="rgb(255,242,0)" stroke="none" d="M 3040,791 L 3047,785 3101,834 3094,839 3040,791 Z "/>
         <path fill="rgb(255,241,0)" stroke="none" d="M 3043,789 L 3049,783 3104,831 3097,837 3043,789 Z "/>
         <path fill="rgb(255,240,0)" stroke="none" d="M 3045,787 L 3052,781 3106,829 3100,835 3045,787 Z "/>
         <path fill="rgb(255,239,0)" stroke="none" d="M 3048,784 L 3054,779 3109,827 3102,833 3048,784 Z "/>
         <path fill="rgb(255,238,0)" stroke="none" d="M 3050,782 L 3057,776 3111,825 3105,830 3050,782 Z "/>
         <path fill="rgb(255,237,0)" stroke="none" d="M 3053,780 L 3059,774 3114,822 3107,828 3053,780 Z "/>
         <path fill="rgb(255,236,0)" stroke="none" d="M 3055,778 L 3062,772 3116,820 3110,826 3055,778 Z "/>
         <path fill="rgb(255,235,0)" stroke="none" d="M 3058,776 L 3064,770 3119,818 3112,824 3058,776 Z "/>
         <path fill="rgb(255,234,0)" stroke="none" d="M 3060,773 L 3067,768 3121,816 3115,822 3060,773 Z "/>
         <path fill="rgb(255,233,0)" stroke="none" d="M 3063,771 L 3069,765 3124,814 3117,819 3063,771 Z "/>
         <path fill="rgb(255,232,0)" stroke="none" d="M 3065,769 L 3072,763 3126,811 3120,817 3065,769 Z "/>
         <path fill="rgb(255,231,0)" stroke="none" d="M 3068,767 L 3075,761 3129,809 3122,815 3068,767 Z "/>
         <path fill="rgb(255,230,0)" stroke="none" d="M 3070,764 L 3077,759 3131,807 3125,813 3070,764 Z "/>
         <path fill="rgb(255,229,0)" stroke="none" d="M 3073,762 L 3079,757 3134,805 3127,810 3073,762 Z "/>
         <path fill="rgb(254,226,2)" stroke="none" d="M 3075,760 L 3082,754 3136,803 3129,808 3075,760 Z "/>
         <path fill="rgb(254,223,5)" stroke="none" d="M 3078,758 L 3084,752 3138,801 3132,806 3078,758 Z "/>
         <path fill="rgb(253,220,7)" stroke="none" d="M 3080,756 L 3087,750 3141,798 3134,804 3080,756 Z "/>
         <path fill="rgb(252,217,10)" stroke="none" d="M 3082,754 L 3089,748 3143,796 3137,802 3082,754 Z "/>
         <path fill="rgb(252,214,12)" stroke="none" d="M 3085,752 L 3091,746 3145,794 3139,800 3085,752 Z "/>
         <path fill="rgb(251,211,14)" stroke="none" d="M 3087,750 L 3094,744 3148,792 3141,798 3087,750 Z "/>
         <path fill="rgb(250,208,17)" stroke="none" d="M 3090,747 L 3096,742 3150,790 3144,796 3090,747 Z "/>
         <path fill="rgb(250,205,19)" stroke="none" d="M 3092,745 L 3098,740 3153,788 3146,794 3092,745 Z "/>
         <path fill="rgb(249,202,22)" stroke="none" d="M 3094,743 L 3101,738 3155,786 3148,792 3094,743 Z "/>
         <path fill="rgb(249,199,24)" stroke="none" d="M 3097,741 L 3103,736 3157,784 3151,789 3097,741 Z "/>
         <path fill="rgb(248,196,26)" stroke="none" d="M 3099,739 L 3106,733 3160,782 3153,787 3099,739 Z "/>
         <path fill="rgb(247,193,29)" stroke="none" d="M 3101,737 L 3108,731 3162,780 3156,785 3101,737 Z "/>
         <path fill="rgb(247,190,31)" stroke="none" d="M 3104,735 L 3110,729 3164,777 3158,783 3104,735 Z "/>
         <path fill="rgb(246,187,34)" stroke="none" d="M 3106,733 L 3113,727 3167,775 3160,781 3106,733 Z "/>
         <path fill="rgb(245,184,36)" stroke="none" d="M 3109,731 L 3115,725 3169,773 3163,779 3109,731 Z "/>
         <path fill="rgb(245,181,38)" stroke="none" d="M 3111,729 L 3117,723 3172,771 3165,777 3111,729 Z "/>
         <path fill="rgb(244,178,41)" stroke="none" d="M 3113,726 L 3120,721 3174,769 3167,775 3113,726 Z "/>
         <path fill="rgb(243,175,43)" stroke="none" d="M 3116,724 L 3122,719 3176,767 3170,773 3116,724 Z "/>
         <path fill="rgb(243,172,46)" stroke="none" d="M 3118,722 L 3125,717 3179,765 3172,771 3118,722 Z "/>
         <path fill="rgb(242,169,48)" stroke="none" d="M 3121,720 L 3127,714 3181,763 3175,768 3121,720 Z "/>
         <path fill="rgb(243,174,45)" stroke="none" d="M 3123,718 L 3130,712 3184,760 3177,766 3123,718 Z "/>
         <path fill="rgb(244,180,41)" stroke="none" d="M 3125,716 L 3132,710 3186,758 3180,764 3125,716 Z "/>
         <path fill="rgb(245,185,38)" stroke="none" d="M 3128,714 L 3135,708 3189,756 3182,762 3128,714 Z "/>
         <path fill="rgb(246,190,34)" stroke="none" d="M 3130,711 L 3137,706 3191,754 3185,760 3130,711 Z "/>
         <path fill="rgb(247,195,31)" stroke="none" d="M 3133,709 L 3140,703 3194,752 3187,757 3133,709 Z "/>
         <path fill="rgb(248,201,27)" stroke="none" d="M 3135,707 L 3142,701 3196,749 3190,755 3135,707 Z "/>
         <path fill="rgb(249,206,24)" stroke="none" d="M 3138,705 L 3145,699 3199,747 3192,753 3138,705 Z "/>
         <path fill="rgb(249,211,21)" stroke="none" d="M 3140,702 L 3147,697 3201,745 3195,751 3140,702 Z "/>
         <path fill="rgb(250,217,17)" stroke="none" d="M 3143,700 L 3150,694 3204,743 3197,749 3143,700 Z "/>
         <path fill="rgb(251,222,14)" stroke="none" d="M 3145,698 L 3152,692 3206,741 3200,746 3145,698 Z "/>
         <path fill="rgb(252,227,10)" stroke="none" d="M 3148,696 L 3155,690 3209,738 3202,744 3148,696 Z "/>
         <path fill="rgb(253,232,7)" stroke="none" d="M 3150,694 L 3157,688 3211,736 3205,742 3150,694 Z "/>
         <path fill="rgb(254,238,3)" stroke="none" d="M 3153,691 L 3160,686 3214,734 3207,740 3153,691 Z "/>
        </g>
        <g clip-path="url(#clip_path_1)">
         <path fill="rgb(158,158,158)" stroke="none" d="M 1052,933 L 877,933 915,717 1091,717 1083,759 964,759 956,804 1059,804 1052,844 949,844 941,891 1060,891 1052,933 1052,933 Z "/>
         <path fill="rgb(158,158,158)" stroke="none" d="M 1257,933 L 1197,933 1172,887 1129,933 1072,933 1149,852 1103,772 1163,772 1187,819 1231,772 1287,772 1210,851 1257,933 1257,933 Z "/>
         <path fill="rgb(158,158,158)" stroke="none" d="M 1415,768 C 1433,768 1447,774 1457,786 1467,798 1472,813 1472,832 1472,845 1470,857 1466,868 1462,880 1456,891 1448,901 1440,912 1429,920 1414,927 1399,933 1382,936 1362,936 1354,936 1344,936 1332,934 L 1330,952 1322,995 1269,995 1309,772 1351,772 1350,806 C 1367,781 1388,768 1415,768 L 1415,768 Z M 1398,809 C 1391,809 1382,813 1373,822 1364,830 1356,839 1348,850 L 1341,893 C 1349,896 1358,897 1368,897 1385,897 1397,891 1405,879 1413,867 1417,854 1417,840 1417,831 1416,824 1412,818 1409,812 1404,809 1398,809 L 1398,809 Z "/>
         <path fill="rgb(158,158,158)" stroke="none" d="M 1583,893 L 1579,929 C 1566,934 1553,936 1540,936 1525,936 1514,933 1506,927 1498,921 1494,912 1494,901 1494,898 1494,894 1495,891 L 1527,710 1581,710 1551,879 C 1550,881 1550,883 1550,884 1550,889 1551,892 1553,894 1555,895 1559,896 1565,896 1570,896 1576,895 1583,893 L 1583,893 Z "/>
         <path fill="rgb(158,158,158)" stroke="none" d="M 1684,936 C 1660,935 1640,929 1627,918 1613,907 1606,891 1606,870 1606,840 1616,816 1635,797 1654,778 1680,768 1713,768 1738,768 1758,774 1772,786 1786,797 1793,813 1793,834 1793,865 1784,890 1764,908 1745,927 1719,936 1684,936 L 1684,936 Z M 1690,896 C 1705,896 1717,891 1726,881 1735,871 1740,857 1740,840 1740,818 1730,808 1709,808 1694,808 1682,813 1673,823 1664,833 1659,847 1659,865 1659,875 1662,883 1667,888 1672,893 1680,896 1690,896 L 1690,896 Z "/>
         <path fill="rgb(158,158,158)" stroke="none" d="M 1810,933 L 1838,772 1881,772 1879,811 C 1897,782 1920,768 1948,768 L 1951,768 1941,817 C 1929,817 1917,820 1906,827 1895,833 1885,841 1878,850 L 1863,933 1810,933 1810,933 Z "/>
         <path fill="rgb(158,158,158)" stroke="none" d="M 2129,817 C 2127,854 2095,873 2034,873 2025,873 2017,873 2009,872 2010,882 2013,888 2020,892 2026,896 2037,898 2052,898 2070,898 2089,896 2108,890 L 2100,928 C 2081,934 2060,936 2038,936 2008,936 1986,931 1973,919 1960,907 1953,891 1953,869 1953,840 1963,817 1982,798 2001,779 2026,769 2058,769 2082,769 2100,773 2111,782 2123,791 2129,802 2129,817 L 2129,817 Z M 2011,842 C 2014,843 2017,843 2022,843 2057,843 2075,836 2075,821 2075,817 2073,813 2070,810 2066,807 2061,805 2054,805 2043,805 2034,809 2027,815 2020,822 2015,831 2011,842 L 2011,842 Z "/>
         <path fill="rgb(255,194,0)" stroke="none" d="M 2279,933 L 2223,933 2262,717 2361,717 C 2392,717 2413,722 2426,732 2438,742 2445,756 2445,774 2445,783 2444,792 2442,800 2440,807 2437,815 2432,823 2427,831 2420,838 2412,844 2405,849 2394,854 2381,858 2368,861 2353,863 2336,863 L 2292,863 2279,933 2279,933 Z M 2299,823 L 2338,823 C 2370,823 2387,810 2387,782 2387,774 2384,767 2378,763 2373,758 2363,756 2350,756 L 2311,756 2299,823 2299,823 Z "/>
         <path fill="rgb(255,194,0)" stroke="none" d="M 2541,893 L 2537,929 C 2524,934 2511,936 2498,936 2483,936 2471,933 2463,927 2456,921 2452,912 2452,901 2452,898 2452,894 2453,891 L 2485,710 2538,710 2508,879 C 2508,881 2508,883 2508,884 2508,889 2509,892 2511,894 2513,895 2517,896 2523,896 2528,896 2534,895 2541,893 L 2541,893 Z "/>
         <path fill="rgb(255,194,0)" stroke="none" d="M 2755,772 L 2726,933 2684,933 2686,898 C 2667,923 2642,936 2612,936 2596,936 2584,932 2576,924 2568,916 2564,906 2564,892 2564,887 2565,882 2566,878 L 2585,772 2638,772 2621,866 C 2621,869 2620,872 2620,876 2620,888 2625,894 2635,894 2642,894 2651,890 2660,882 2670,875 2678,865 2687,854 L 2701,772 2755,772 2755,772 Z "/>
         <path fill="rgb(255,194,0)" stroke="none" d="M 2763,928 L 2772,888 C 2773,890 2781,892 2793,895 2806,897 2818,898 2830,898 2853,898 2864,893 2864,883 2864,879 2861,876 2855,874 2850,872 2843,870 2834,868 2826,867 2817,865 2809,862 2801,860 2794,855 2788,849 2782,843 2779,835 2779,825 2779,807 2787,793 2801,783 2816,773 2839,768 2869,768 2879,768 2888,769 2898,770 2907,771 2914,772 2919,774 2924,775 2927,776 2929,777 L 2920,815 C 2916,813 2909,811 2898,809 2888,808 2878,807 2868,807 2845,807 2833,812 2833,822 2833,825 2836,828 2841,830 2847,832 2854,834 2863,835 2871,837 2879,839 2887,841 2896,844 2903,848 2909,855 2915,861 2917,868 2917,878 2917,898 2909,912 2893,922 2878,931 2856,936 2828,936 2818,936 2807,935 2796,934 2785,933 2777,932 2772,931 2767,929 2763,928 2763,928 L 2763,928 Z "/>
        </g>
       </g>
      </g>
     </g>
    </g>
   </g>
  </g>
 </g>
</svg>